<svg version="1.1" id="Layer_1" xmlns="http://www.w3.org/2000/svg" xmlns:xlink="http://www.w3.org/1999/xlink" x="0px" y="0px"
	 width="100%" viewBox="0 0 1008 1024" enable-background="new 0 0 1008 1024" xml:space="preserve">
<path fill="#000000" opacity="1.000000" stroke="none" 
	d="
M472.738647,615.802368 
	C477.840027,603.704102 482.781189,591.947754 487.867249,580.254333 
	C489.011505,577.623596 488.598175,576.009399 486.138641,574.434509 
	C464.000397,560.259094 441.924286,545.986694 419.811371,531.771667 
	C416.029419,529.340454 411.961121,527.309692 408.383148,524.618042 
	C404.415070,521.632935 402.536469,523.401917 400.811432,526.966553 
	C396.752655,535.353760 392.640686,543.715576 388.502747,552.064148 
	C379.631531,569.962463 370.685059,587.823669 361.866943,605.748047 
	C358.945496,611.686340 357.229401,618.146545 352.657288,623.335083 
	C345.050873,631.967102 334.897217,634.450134 324.284241,636.224731 
	C314.957581,637.784241 305.659363,639.513489 296.333374,641.077026 
	C285.712036,642.857849 275.060730,644.461670 264.446838,646.284485 
	C254.669464,647.963623 244.976105,650.219482 235.153290,651.526550 
	C219.373672,653.626160 203.976303,657.998718 187.885406,658.402344 
	C172.244736,658.794800 157.540237,646.495483 155.032257,632.892517 
	C151.930313,616.068115 161.642899,600.224854 177.783340,594.752808 
	C186.973526,591.637085 196.621887,590.872253 206.044785,588.968018 
	C216.285141,586.898621 226.614502,585.263672 236.917130,583.510315 
	C246.381454,581.899658 255.869278,580.426880 265.333313,578.814514 
	C277.267090,576.781433 289.205139,574.763428 301.100983,572.524475 
	C304.151886,571.950317 305.377258,569.044495 306.649811,566.497375 
	C318.172333,543.433960 329.734528,520.390259 341.193176,497.295227 
	C347.249084,485.089478 354.676697,473.448792 358.578308,460.320770 
	C363.829041,442.652954 368.277649,424.747223 373.104828,406.952881 
	C378.805298,385.939087 384.536652,364.933655 390.274628,343.930084 
	C390.720520,342.298065 391.389587,340.537170 389.898560,339.284210 
	C388.618378,338.208405 386.978363,338.958893 385.612488,339.505798 
	C367.998322,346.558563 350.419617,353.700287 332.783936,360.698639 
	C329.074005,362.170868 329.028015,365.017212 329.430939,368.079437 
	C330.840118,378.789185 332.371185,389.482819 333.818634,400.187622 
	C335.933716,415.830170 338.687866,431.424133 339.926514,447.136841 
	C341.191803,463.187927 331.587036,475.329529 314.456696,478.019104 
	C299.174591,480.418457 284.358459,470.151886 281.687286,455.366333 
	C278.378754,437.052948 276.423401,418.534515 273.703339,400.133667 
	C271.178619,383.054443 269.403412,365.876556 266.276642,348.868652 
	C263.236694,332.333069 271.301483,317.776489 287.010468,312.003448 
	C316.027740,301.339569 344.552521,289.337128 373.298187,277.932068 
	C393.556091,269.894562 413.564545,261.098419 434.205292,254.199478 
	C448.972046,249.263824 464.133972,249.570847 477.106049,260.740479 
	C481.175476,264.244507 483.483429,268.833801 485.632568,273.467651 
	C503.100342,311.130524 520.425354,348.859589 537.837341,386.548431 
	C540.976807,393.343872 541.130676,393.546265 548.245728,391.758148 
	C572.431580,385.679993 596.627991,379.628571 620.705261,373.139740 
	C635.855225,369.056824 650.115845,374.290344 657.094666,388.226624 
	C665.245728,404.503906 656.786133,425.034546 639.882629,429.450470 
	C621.948120,434.135681 603.978760,438.687439 586.032898,443.329254 
	C571.818420,447.005859 557.627258,450.772614 543.405334,454.419678 
	C532.949829,457.100861 522.568604,460.150696 511.696594,455.785980 
	C502.588531,452.129517 496.814758,445.465302 492.869629,436.833221 
	C485.140381,419.921265 477.421997,403.004303 469.651550,386.111298 
	C469.060364,384.826080 468.862671,383.118591 466.456635,382.558319 
	C463.151917,385.486298 463.598114,390.189087 462.454437,394.016205 
	C458.246674,408.096649 454.535339,422.327606 450.765167,436.535889 
	C448.297760,445.834534 446.104828,455.205780 443.667999,464.512878 
	C443.043945,466.896240 443.908112,468.343201 445.780518,469.534882 
	C461.504639,479.542328 477.225739,489.554565 492.947540,499.565704 
	C511.333313,511.273193 529.805054,522.848694 548.067993,534.744690 
	C557.136536,540.651672 561.140198,549.310608 562.475830,560.225403 
	C564.175537,574.115601 558.270691,585.559937 553.218140,597.399780 
	C536.847168,635.762939 520.260925,674.034180 503.832764,712.373047 
	C498.563232,724.670715 490.748962,734.185791 477.625854,738.746094 
	C461.842468,744.230774 442.317657,732.229004 438.600037,715.960388 
	C436.034607,704.733887 438.533417,695.092224 442.825226,685.215576 
	C452.816132,662.223572 462.702271,639.186096 472.738647,615.802368 
z"/>
<path fill="#000000" opacity="1.000000" stroke="none" 
	d="
M235.040100,875.061218 
	C214.630615,877.494202 194.885162,882.082153 174.700745,882.203918 
	C153.825272,882.329895 135.131699,865.161865 130.564560,844.845093 
	C123.899811,815.197266 147.382523,788.907837 174.827148,786.732544 
	C190.680405,785.476013 206.446747,782.740417 222.199036,780.218872 
	C238.756393,777.568481 255.468384,775.894653 272.096619,773.672791 
	C283.623413,772.132629 295.114929,770.330139 306.636475,768.748718 
	C319.317413,767.008118 332.019104,765.419128 344.703430,763.702576 
	C355.231659,762.277771 365.744751,760.741394 376.269958,759.293884 
	C394.719208,756.756470 413.182556,754.319092 431.620728,751.703979 
	C443.467529,750.023804 455.257843,747.939209 467.112854,746.324951 
	C484.239105,743.993103 501.410217,741.992249 518.544678,739.718384 
	C531.082275,738.054565 543.583618,736.118469 556.115540,734.409790 
	C582.158997,730.858887 608.215271,727.402222 634.259766,723.859009 
	C646.772400,722.156677 659.274658,720.375854 671.772095,718.565430 
	C675.559204,718.016907 676.414917,715.465515 675.122131,712.324097 
	C671.317383,703.078857 670.638672,693.172485 669.977051,683.509155 
	C668.669373,664.407532 669.317078,645.231812 671.882446,626.216064 
	C676.036499,595.424133 684.885437,566.074036 698.715942,538.158691 
	C707.145752,521.144043 716.365051,504.601318 725.959595,488.243225 
	C726.550781,487.235229 727.173767,486.232086 726.654419,484.526245 
	C723.027893,484.800720 719.255249,484.804810 715.582275,485.411713 
	C697.099670,488.465698 678.657776,491.768219 660.166748,494.768341 
	C655.595886,495.509949 651.014587,496.175110 646.444458,496.928253 
	C633.889465,498.997162 622.722412,489.268585 621.836548,475.958710 
	C621.352112,468.679321 621.971252,461.609344 627.329407,455.891083 
	C630.771301,452.217865 634.967896,450.424561 640.016235,449.674286 
	C650.956787,448.048279 661.989319,446.952148 672.789246,444.405731 
	C677.780396,443.228943 682.970093,442.877472 688.003174,442.253235 
	C702.818420,440.415833 717.413696,437.273987 732.243896,435.538269 
	C745.064209,434.037811 757.750427,431.396515 770.500671,429.288422 
	C773.615662,428.773407 776.008606,427.317841 777.915710,424.727661 
	C791.146240,406.758453 804.453125,388.845520 817.729431,370.910034 
	C825.113159,360.934998 829.617065,359.581299 841.057312,364.750275 
	C848.817993,368.256744 854.905823,373.833588 859.303223,381.248474 
	C862.097473,385.960022 861.982666,390.222870 858.681824,394.668121 
	C850.045593,406.298737 841.442383,417.957520 833.044678,429.760681 
	C825.047913,441.000336 815.552856,451.158905 809.112427,463.535034 
	C805.904846,469.698761 800.689392,473.074677 793.410767,473.340454 
	C788.462402,473.521149 783.712036,475.527222 778.640320,475.485321 
	C776.546692,475.467987 775.182556,477.253357 774.079163,479.012695 
	C760.024048,501.423279 745.220337,523.378845 733.207031,547.022217 
	C722.129150,568.824585 714.896423,591.794678 710.750732,615.906982 
	C707.273987,636.128479 704.198364,656.341370 705.233093,676.898926 
	C705.784424,687.852295 707.766724,698.657349 711.339905,709.100952 
	C712.073669,711.245544 713.325195,712.372131 715.785583,712.162781 
	C723.070496,711.543213 730.305115,710.568848 737.555481,709.641846 
	C752.766113,707.697266 768.012024,703.552246 783.165161,710.534241 
	C801.787537,719.114746 811.628845,734.248962 811.585510,753.902222 
	C811.533997,777.241272 795.931763,797.137634 769.738220,801.219727 
	C752.002808,803.983704 734.221252,806.465759 716.433716,808.877747 
	C694.849609,811.804688 673.225525,814.436829 651.640808,817.359436 
	C629.549255,820.350769 607.490540,823.583618 585.406311,826.630432 
	C554.769104,830.857056 524.114990,834.960815 493.480835,839.208740 
	C471.900726,842.201294 450.353455,845.430969 428.770142,848.399414 
	C407.013519,851.391724 385.214935,854.080383 363.462830,857.104309 
	C333.475677,861.273010 303.519165,865.661743 273.540771,869.894470 
	C260.866302,871.684021 248.169693,873.316589 235.040100,875.061218 
z"/>
<path fill="#000000" opacity="1.000000" stroke="none" 
	d="
M559.000000,868.296875 
	C537.510010,868.507141 516.520264,868.747009 495.529907,868.909485 
	C489.133209,868.959045 488.814087,868.537659 488.785858,862.068298 
	C488.728119,848.840027 488.703888,848.673645 501.665283,846.785339 
	C525.362671,843.333008 549.095581,840.125671 572.806519,836.765625 
	C593.710510,833.803345 614.548889,830.279358 635.518311,827.904663 
	C658.325500,825.321838 680.921570,821.327148 703.717468,818.676270 
	C724.702393,816.235962 745.554688,812.670776 766.486023,809.748291 
	C779.333435,807.954468 792.237244,806.561523 805.078552,804.728088 
	C809.508057,804.095642 810.955200,806.110779 810.898010,809.910645 
	C810.817993,815.236755 810.381042,820.558167 810.328552,825.883850 
	C810.211731,837.714478 810.251404,849.546509 810.203186,861.377869 
	C810.174316,868.455383 810.108337,868.461426 802.929810,868.577026 
	C746.778564,869.481079 690.622925,869.046082 634.472717,868.741638 
	C609.483459,868.606140 584.490540,868.505798 559.000000,868.296875 
z"/>
<path fill="#000000" opacity="1.000000" stroke="none" 
	d="
M494.595856,133.930054 
	C509.452393,135.964859 522.375488,141.217560 532.560120,151.871399 
	C547.480652,167.479355 553.660828,186.278259 549.135864,207.319214 
	C543.486328,233.589569 526.758423,249.570602 500.212433,255.122269 
	C470.901947,261.252075 442.507721,243.474594 432.203644,217.572235 
	C419.845398,186.506119 435.870819,149.508057 467.232788,137.905838 
	C475.943848,134.683212 484.869537,133.207687 494.595856,133.930054 
z"/>
</svg>